<svg xmlns="http://www.w3.org/2000/svg" viewBox="0 0 200 200" width="200" height="200">
  <circle cx="100" cy="100" r="86" fill="#06392f"/>
  <circle cx="100" cy="100" r="86" fill="none" stroke="#14b989" stroke-width="3"/>

  <path d="M28 116 C40 104, 54 104, 66 116 S92 128, 104 116 S130 104, 142 116 S168 128, 180 116" fill="none" stroke="#14b989" stroke-width="4" stroke-linecap="round" stroke-linejoin="round"/>
  <path d="M26 132 C38 120, 52 120, 64 132 S90 144, 102 132 S128 120, 140 132 S166 144, 178 132" fill="none" stroke="#1dd6a0" stroke-width="4" stroke-linecap="round" stroke-linejoin="round"/>
  <path d="M28 148 C40 136, 54 136, 66 148 S92 160, 104 148 S130 136, 142 148 S168 160, 180 148" fill="none" stroke="#b8ffe9" stroke-width="2.5" stroke-linecap="round" stroke-linejoin="round"/>

  <path d="M100 40 L109 64 L134 64 L114 79 L122 103 L100 89 L78 103 L86 79 L66 64 L91 64 Z" fill="#f6a623"/>
</svg>